<svg width="30" height="31" viewBox="0 0 30 31" fill="none" xmlns="http://www.w3.org/2000/svg">
<path d="M8.24543 0.0405273C3.70525 0.0405273 0.0234375 3.83866 0.0234375 8.52229V22.0931C0.0234375 26.7767 3.70525 30.5749 8.24543 30.5749H21.4006C25.9408 30.5749 29.6226 26.7767 29.6226 22.0931V8.52229C29.6226 3.83866 25.9408 0.0405273 21.4006 0.0405273H8.24543ZM24.6894 3.43323C25.5971 3.43323 26.3338 4.1932 26.3338 5.12959C26.3338 6.06597 25.5971 6.82594 24.6894 6.82594C23.7817 6.82594 23.045 6.06597 23.045 5.12959C23.045 4.1932 23.7817 3.43323 24.6894 3.43323ZM14.823 6.82594C19.3632 6.82594 23.045 10.6241 23.045 15.3077C23.045 19.9913 19.3632 23.7895 14.823 23.7895C10.2828 23.7895 6.60103 19.9913 6.60103 15.3077C6.60103 10.6241 10.2828 6.82594 14.823 6.82594ZM14.823 10.2186C13.5147 10.2186 12.2599 10.7548 11.3347 11.7092C10.4096 12.6636 9.88983 13.958 9.88983 15.3077C9.88983 16.6574 10.4096 17.9518 11.3347 18.9062C12.2599 19.8606 13.5147 20.3968 14.823 20.3968C16.1314 20.3968 17.3862 19.8606 18.3113 18.9062C19.2365 17.9518 19.7562 16.6574 19.7562 15.3077C19.7562 13.958 19.2365 12.6636 18.3113 11.7092C17.3862 10.7548 16.1314 10.2186 14.823 10.2186Z" fill="white"/>
</svg>
