<svg width="48" height="48" viewBox="0 0 48 48" fill="none" xmlns="http://www.w3.org/2000/svg">
<path d="M28.864 20.1276V19.6783L34.0643 24.6956L47.5955 18.6049L45.9656 15.2101L34.8922 20.2025L28.864 14.3864V10.8917L34.8922 5.07564L45.9656 10.068L47.5955 6.67319L34.0643 0.58252L28.864 5.59983V5.15052H23.6895V10.1429H15.4622C14.3755 7.24731 11.5296 5.15052 8.16617 5.15052C3.87138 5.15052 0.404495 8.4954 0.404495 12.6391C0.404495 15.3848 1.95683 17.7562 4.23359 19.0792L10.9604 40.097H2.99172V47.5855H36.6257V40.097H27.2599L14.4014 17.0323C14.8412 16.4582 15.2034 15.8342 15.4622 15.1352H23.6895V20.1276H28.864ZM8.16617 15.1352C6.7432 15.1352 5.57895 14.0119 5.57895 12.6391C5.57895 11.2662 6.7432 10.1429 8.16617 10.1429C9.58915 10.1429 10.7534 11.2662 10.7534 12.6391C10.7534 14.0119 9.58915 15.1352 8.16617 15.1352Z" fill="white"/>
</svg>
