<svg width="48" height="48" viewBox="0 0 48 48" fill="none" xmlns="http://www.w3.org/2000/svg">
<path d="M47.5955 10.4779H37.7276C37.9873 9.711 38.1526 8.86989 38.1526 8.00405C38.1526 3.89747 34.9892 0.58252 31.0704 0.58252C28.5916 0.58252 26.4433 1.91839 25.1685 3.92221L23.9882 5.57968L22.8078 3.89747C21.533 1.91839 19.3848 0.58252 16.906 0.58252C12.9872 0.58252 9.8238 3.89747 9.8238 8.00405C9.8238 8.86989 9.98905 9.711 10.2487 10.4779H0.40448V47.5855H47.5955V10.4779ZM31.0704 5.5302C32.3688 5.5302 33.4311 6.64343 33.4311 8.00405C33.4311 9.36466 32.3688 10.4779 31.0704 10.4779C29.772 10.4779 28.7096 9.36466 28.7096 8.00405C28.7096 6.64343 29.772 5.5302 31.0704 5.5302ZM16.906 5.5302C18.2044 5.5302 19.2667 6.64343 19.2667 8.00405C19.2667 9.36466 18.2044 10.4779 16.906 10.4779C15.6076 10.4779 14.5453 9.36466 14.5453 8.00405C14.5453 6.64343 15.6076 5.5302 16.906 5.5302ZM42.874 42.6378H5.10233V37.6902H42.874V42.6378ZM42.874 30.2686H5.10233V15.4256H17.0948L12.1845 22.4265L16.0089 25.3209L23.9882 13.9413L31.9675 25.3209L35.7918 22.4265L30.8815 15.4256H42.874V30.2686Z" fill="white"/>
</svg>
