<svg width="41" height="31" viewBox="0 0 41 31" fill="none" xmlns="http://www.w3.org/2000/svg">
<path d="M39.3282 4.21228C38.8744 2.57106 37.5365 1.27717 35.8395 0.838238C32.7612 0.0405277 20.4203 0.0405273 20.4203 0.0405273C20.4203 0.0405273 8.0794 0.0405277 5.00109 0.838238C3.30407 1.27717 1.96618 2.57106 1.51233 4.21228C0.6875 7.18938 0.6875 15.3077 0.6875 15.3077C0.6875 15.3077 0.6875 23.426 1.51233 26.4031C1.96618 28.0443 3.30407 29.3382 5.00109 29.7772C8.0794 30.5749 20.4203 30.5749 20.4203 30.5749C20.4203 30.5749 32.7612 30.5749 35.8395 29.7772C37.5385 29.3382 38.8744 28.0443 39.3282 26.4031C40.1531 23.426 40.1531 15.3077 40.1531 15.3077C40.1531 15.3077 40.1531 7.18938 39.3282 4.21228ZM16.4737 21.9184V8.69702L28.3134 15.3077L16.4737 21.9184Z" fill="white"/>
</svg>
